<svg xmlns="http://www.w3.org/2000/svg" viewBox="0 0 400 400" width="100%" height="100%">
  <defs>
    <linearGradient id="s1-shoe-grad" x1="0%" y1="0%" x2="100%" y2="100%">
      <stop offset="0%" stop-color="#16A36A"/>
      <stop offset="60%" stop-color="#0B3D2E"/>
      <stop offset="100%" stop-color="#062A20"/>
    </linearGradient>
    <linearGradient id="s1-sole-grad" x1="0%" y1="0%" x2="100%" y2="0%">
      <stop offset="0%" stop-color="#DDF8E8"/>
      <stop offset="50%" stop-color="#7EE2A8"/>
      <stop offset="100%" stop-color="#16A36A"/>
    </linearGradient>
    <radialGradient id="s1-shadow" cx="50%" cy="50%" r="50%">
      <stop offset="0%" stop-color="#000000" stop-opacity="0.4"/>
      <stop offset="100%" stop-color="#000000" stop-opacity="0"/>
    </radialGradient>
  </defs>
  <!-- Ground Soft Shadow -->
  <ellipse cx="200" cy="330" rx="160" ry="24" fill="url(#s1-shadow)"/>
  <g transform="translate(30, 60) rotate(-6, 200, 200)">
    <!-- Main Shoe Silhouette -->
    <path d="M 50 240 Q 80 160 140 140 Q 210 120 280 160 Q 330 150 360 190 Q 370 230 350 260 Q 300 280 200 280 Q 100 285 50 240 Z" fill="url(#s1-shoe-grad)"/>
    <!-- Responsive Nitrogen Midsole -->
    <path d="M 45 255 Q 120 275 220 270 Q 310 260 365 240 L 368 265 Q 310 295 200 295 Q 90 295 42 270 Z" fill="url(#s1-sole-grad)"/>
    <!-- Carbon Plate Spine -->
    <path d="M 120 255 Q 220 258 310 245" stroke="#07110D" stroke-width="4" fill="none"/>
    <!-- Dynamic Aerodynamic Speed Lines -->
    <path d="M 140 155 Q 200 185 290 190" stroke="#7EE2A8" stroke-width="4" stroke-linecap="round" fill="none"/>
    <path d="M 160 170 Q 215 195 305 200" stroke="#DDF8E8" stroke-width="2.5" stroke-linecap="round" fill="none"/>
    <!-- Collar & Eyelets -->
    <path d="M 140 140 Q 180 120 210 145" stroke="#7EE2A8" stroke-width="3" fill="none"/>
    <circle cx="210" cy="155" r="3" fill="#DDF8E8"/>
    <circle cx="230" cy="165" r="3" fill="#DDF8E8"/>
    <circle cx="250" cy="175" r="3" fill="#DDF8E8"/>
    <!-- Revora Precision Badge -->
    <rect x="265" y="172" width="32" height="12" rx="6" fill="#0B3D2E" stroke="#7EE2A8" stroke-width="1.5"/>
    <text x="281" y="181" text-anchor="middle" fill="#7EE2A8" font-family="sans-serif" font-size="7" font-weight="bold">NITRO</text>
  </g>
</svg>