<svg xmlns="http://www.w3.org/2000/svg" viewBox="0 0 400 400" width="100%" height="100%">
  <defs>
    <linearGradient id="s2-shoe" x1="0%" y1="0%" x2="100%" y2="100%">
      <stop offset="0%" stop-color="#16A36A"/>
      <stop offset="50%" stop-color="#0B3D2E"/>
      <stop offset="100%" stop-color="#07110D"/>
    </linearGradient>
    <linearGradient id="s2-sole" x1="0%" y1="0%" x2="100%" y2="0%">
      <stop offset="0%" stop-color="#7EE2A8"/>
      <stop offset="100%" stop-color="#DDF8E8"/>
    </linearGradient>
  </defs>
  <ellipse cx="200" cy="330" rx="150" ry="22" fill="#000000" opacity="0.35"/>
  <g transform="translate(40, 70) rotate(-3, 160, 160)">
    <!-- Shoe Upper Body -->
    <path d="M 40 220 Q 80 150 140 130 Q 210 110 270 150 Q 320 145 350 185 Q 360 220 340 245 Q 290 265 190 265 Q 90 270 40 220 Z" fill="url(#s2-shoe)"/>
    <!-- Cushion Wave -->
    <path d="M 38 238 Q 110 258 210 252 Q 300 245 355 228 L 358 250 Q 300 278 190 278 Q 80 278 35 252 Z" fill="url(#s2-sole)"/>
    <path d="M 130 145 Q 190 170 280 175" stroke="#7EE2A8" stroke-width="4" stroke-linecap="round" fill="none"/>
    <!-- Bundle Highlight Badge -->
    <g transform="translate(240, 80)">
      <rect x="0" y="0" width="80" height="26" rx="13" fill="#0B3D2E" stroke="#7EE2A8" stroke-width="2"/>
      <text x="40" y="17" text-anchor="middle" fill="#7EE2A8" font-family="sans-serif" font-size="10" font-weight="bold">₹2,499</text>
    </g>
  </g>
</svg>